<svg width="32" height="33" viewBox="0 0 32 33" fill="none" xmlns="http://www.w3.org/2000/svg">
<path d="M12 13.834H2.66668C2.31305 13.834 1.97392 13.6935 1.72387 13.4435C1.47382 13.1934 1.33334 12.8543 1.33334 12.5007V3.16732C1.33334 2.8137 1.47382 2.47456 1.72387 2.22451C1.97392 1.97446 2.31305 1.83398 2.66668 1.83398H12C12.3536 1.83398 12.6928 1.97446 12.9428 2.22451C13.1929 2.47456 13.3333 2.8137 13.3333 3.16732V12.5007C13.3333 12.8543 13.1929 13.1934 12.9428 13.4435C12.6928 13.6935 12.3536 13.834 12 13.834Z" fill="#78D89C"/>
<path d="M12 31.168H2.66668C2.31305 31.168 1.97392 31.0275 1.72387 30.7774C1.47382 30.5274 1.33334 30.1883 1.33334 29.8346V20.5013C1.33334 20.1477 1.47382 19.8085 1.72387 19.5585C1.97392 19.3084 2.31305 19.168 2.66668 19.168H12C12.3536 19.168 12.6928 19.3084 12.9428 19.5585C13.1929 19.8085 13.3333 20.1477 13.3333 20.5013V29.8346C13.3333 30.1883 13.1929 30.5274 12.9428 30.7774C12.6928 31.0275 12.3536 31.168 12 31.168Z" fill="#78D89C"/>
<path d="M17.3333 3.16797H30.6667V5.83464H17.3333V3.16797Z" fill="#1DB5BE"/>
<path d="M30.6667 20.5H17.3333V23.1667H30.6667V20.5Z" fill="#1DB5BE"/>
<path d="M30.6667 27.168H17.3333V29.8346H30.6667V27.168Z" fill="#A8E6BF"/>
<path d="M30.6667 9.83398H17.3333V12.5007H30.6667V9.83398Z" fill="#A8E6BF"/>
</svg>
